<?xml version="1.0" encoding="UTF-8" standalone="no"?>
<svg
   xmlns:dc="http://purl.org/dc/elements/1.1/"
   xmlns:cc="http://creativecommons.org/ns#"
   xmlns:rdf="http://www.w3.org/1999/02/22-rdf-syntax-ns#"
   xmlns:svg="http://www.w3.org/2000/svg"
   xmlns="http://www.w3.org/2000/svg"
   xmlns:xlink="http://www.w3.org/1999/xlink"
   xmlns:sodipodi="http://sodipodi.sourceforge.net/DTD/sodipodi-0.dtd"
   xmlns:inkscape="http://www.inkscape.org/namespaces/inkscape"
   version="1.1"
   preserveAspectRatio="xMidYMid meet"
   viewBox="0 0 640 640"
   width="640"
   height="640"
   id="svg115"
   sodipodi:docname="friends.svg"
   inkscape:version="0.92.2 5c3e80d, 2017-08-06">
  <metadata
     id="metadata119">
    <rdf:RDF>
      <cc:Work
         rdf:about="">
        <dc:format>image/svg+xml</dc:format>
        <dc:type
           rdf:resource="http://purl.org/dc/dcmitype/StillImage" />
      </cc:Work>
    </rdf:RDF>
  </metadata>
  <sodipodi:namedview
     pagecolor="#ffffff"
     bordercolor="#666666"
     borderopacity="1"
     objecttolerance="10"
     gridtolerance="10"
     guidetolerance="10"
     inkscape:pageopacity="0"
     inkscape:pageshadow="2"
     inkscape:window-width="1150"
     inkscape:window-height="640"
     id="namedview117"
     showgrid="false"
     inkscape:zoom="0.35355339"
     inkscape:cx="-240.47309"
     inkscape:cy="273.27048"
     inkscape:window-x="192"
     inkscape:window-y="145"
     inkscape:window-maximized="0"
     inkscape:current-layer="g113" />
  <defs
     id="defs21">
    <path
       d="M568.85 371.05C568.85 508.16 457.53 619.48 320.41 619.48C183.3 619.48 71.98 508.16 71.98 371.05C71.98 233.93 183.3 122.61 320.41 122.61C457.53 122.61 568.85 233.93 568.85 371.05Z"
       id="a28tOOVMgM" />
    <path
       d=""
       id="a3WcGdaPEy" />
    <path
       d="M271.05 102.59L323.78 102.59L372.67 102.59L372.67 152.59L271.05 152.59L271.05 102.59Z"
       id="a1omTXCspi" />
    <path
       d="M346.86 86.82C346.86 100.62 335.66 111.82 321.86 111.82C308.06 111.82 296.86 100.62 296.86 86.82C296.86 73.02 308.06 61.82 321.86 61.82C335.66 61.82 346.86 73.02 346.86 86.82Z"
       id="a21V7aPRNB" />
    <path
       d="M330.01 456.08C329.73 414.37 315.27 393.82 286.64 394.43C243.69 395.35 211.11 394.43 162.67 394.43C130.38 394.43 114.23 414.98 114.23 456.08L330.01 456.08Z"
       id="a2ns7P1efA" />
    <path
       d="M437.9 382.93C437.62 341.22 423.16 320.67 394.53 321.28C351.58 322.2 319 321.28 270.56 321.28C238.27 321.28 222.12 341.83 222.12 382.93L437.9 382.93Z"
       id="bs9AaGVUN" />
    <path
       d="M282.05 350.92C282.05 384 255.2 410.85 222.12 410.85C189.05 410.85 162.19 384 162.19 350.92C162.19 317.84 189.05 290.99 222.12 290.99C255.2 290.99 282.05 317.84 282.05 350.92Z"
       id="c7Gabs9FM" />
    <path
       d="M255.68 364.54L188.56 364.54C192.83 369.85 195.49 373.17 196.56 374.49C209.68 390.84 234.56 390.84 247.69 374.49C248.75 373.17 251.42 369.85 255.68 364.54Z"
       id="h2al3mwQ5P" />
    <path
       d="M209.12 336.2C209.12 341.11 205.13 345.1 200.21 345.1C195.3 345.1 191.31 341.11 191.31 336.2C191.31 331.28 195.3 327.29 200.21 327.29C205.13 327.29 209.12 331.28 209.12 336.2Z"
       id="j3BDBEifI2" />
    <path
       d="M249.94 336.2C249.94 341.11 245.95 345.1 241.03 345.1C236.12 345.1 232.13 341.11 232.13 336.2C232.13 331.28 236.12 327.29 241.03 327.29C245.95 327.29 249.94 331.28 249.94 336.2Z"
       id="ayM1khWaa" />
    <path
       d="M524.6 478.59C524.32 436.88 509.86 416.33 481.23 416.94C438.28 417.86 405.7 416.94 357.26 416.94C324.97 416.94 308.82 437.49 308.82 478.59L524.6 478.59Z"
       id="a6hkZ7U8dZ" />
    <path
       d="M476.64 373.43C476.64 406.51 449.79 433.36 416.71 433.36C383.63 433.36 356.78 406.51 356.78 373.43C356.78 340.35 383.63 313.5 416.71 313.5C449.79 313.5 476.64 340.35 476.64 373.43Z"
       id="c2cN0tYT3G" />
    <path
       d="M450.27 387.05L383.15 387.05C387.42 392.36 390.08 395.67 391.15 397C404.27 413.34 429.15 413.34 442.28 397C443.34 395.67 446.01 392.36 450.27 387.05Z"
       id="e3KhCReeBD" />
    <path
       d="M403.71 358.7C403.71 363.62 399.72 367.61 394.8 367.61C389.89 367.61 385.9 363.62 385.9 358.7C385.9 353.79 389.89 349.8 394.8 349.8C399.72 349.8 403.71 353.79 403.71 358.7Z"
       id="b1lnnaHNbS" />
    <path
       d="M444.53 358.7C444.53 363.62 440.54 367.61 435.62 367.61C430.71 367.61 426.72 363.62 426.72 358.7C426.72 353.79 430.71 349.8 435.62 349.8C440.54 349.8 444.53 353.79 444.53 358.7Z"
       id="bzgvLrQw" />
    <path
       d="M389.94 277.77C389.94 310.85 363.09 337.7 330.01 337.7C296.94 337.7 270.08 310.85 270.08 277.77C270.08 244.69 296.94 217.84 330.01 217.84C363.09 217.84 389.94 244.69 389.94 277.77Z"
       id="bXV07JtHc" />
    <path
       d="M363.57 291.39L296.45 291.39C300.72 296.7 303.38 300.02 304.45 301.34C317.57 317.69 342.45 317.69 355.58 301.34C356.64 300.02 359.31 296.7 363.57 291.39Z"
       id="cKVl0XwN7" />
    <path
       d="M317.01 263.04C317.01 267.96 313.02 271.95 308.1 271.95C303.19 271.95 299.2 267.96 299.2 263.04C299.2 258.13 303.19 254.14 308.1 254.14C313.02 254.14 317.01 258.13 317.01 263.04Z"
       id="cGumNrLGT" />
    <path
       d="M357.83 263.04C357.83 267.96 353.84 271.95 348.92 271.95C344.01 271.95 340.02 267.96 340.02 263.04C340.02 258.13 344.01 254.14 348.92 254.14C353.84 254.14 357.83 258.13 357.83 263.04Z"
       id="a2dRsWKTAn" />
  </defs>
  <g
     id="g113">
    <g
       id="g25"
       style="fill:#d1504d;fill-opacity:1">
      <use
         height="100%"
         width="100%"
         y="0"
         x="0"
         style="opacity:1;fill:#d1504d;fill-opacity:1"
         id="use23"
         xlink:href="#a28tOOVMgM" />
    </g>
    <g
       id="g31">
      <g
         id="g29">
        <use
           height="100%"
           width="100%"
           y="0"
           x="0"
           style="opacity:1;fill-opacity:0;stroke:#000000;stroke-width:2;stroke-opacity:1"
           id="use27"
           xlink:href="#a3WcGdaPEy" />
      </g>
    </g>
    <g
       id="g35">
      <use
         height="100%"
         width="100%"
         y="0"
         x="0"
         style="opacity:1;fill:#818181;fill-opacity:1"
         id="use33"
         xlink:href="#a1omTXCspi" />
    </g>
    <g
       id="g41">
      <g
         id="g39">
        <use
           height="100%"
           width="100%"
           y="0"
           x="0"
           style="opacity:1;fill-opacity:0;stroke:#818181;stroke-width:8;stroke-opacity:1"
           id="use37"
           xlink:href="#a21V7aPRNB" />
      </g>
    </g>
    <g
       id="g49">
      <use
         height="100%"
         width="100%"
         y="0"
         x="0"
         style="opacity:1;fill:#284fa7;fill-opacity:1"
         id="use43"
         xlink:href="#a2ns7P1efA" />
      <g
         id="g47">
        <use
           height="100%"
           width="100%"
           y="0"
           x="0"
           style="opacity:1;fill-opacity:0;stroke:#905656;stroke-width:1;stroke-opacity:1"
           id="use45"
           xlink:href="#a2ns7P1efA" />
      </g>
    </g>
    <g
       id="g57">
      <use
         height="100%"
         width="100%"
         y="0"
         x="0"
         style="opacity:1;fill:#37b010;fill-opacity:1"
         id="use51"
         xlink:href="#bs9AaGVUN" />
      <g
         id="g55">
        <use
           height="100%"
           width="100%"
           y="0"
           x="0"
           style="opacity:1;fill-opacity:0;stroke:#905656;stroke-width:1;stroke-opacity:1"
           id="use53"
           xlink:href="#bs9AaGVUN" />
      </g>
    </g>
    <g
       id="g61">
      <use
         height="100%"
         width="100%"
         y="0"
         x="0"
         style="opacity:1;fill:#803e00;fill-opacity:1"
         id="use59"
         xlink:href="#c7Gabs9FM" />
    </g>
    <g
       id="g65">
      <use
         height="100%"
         width="100%"
         y="0"
         x="0"
         style="opacity:1;fill:#ffffff;fill-opacity:1"
         id="use63"
         xlink:href="#h2al3mwQ5P" />
    </g>
    <g
       id="g69">
      <use
         height="100%"
         width="100%"
         y="0"
         x="0"
         style="opacity:1;fill:#ffffff;fill-opacity:1"
         id="use67"
         xlink:href="#j3BDBEifI2" />
    </g>
    <g
       id="g73">
      <use
         height="100%"
         width="100%"
         y="0"
         x="0"
         style="opacity:1;fill:#ffffff;fill-opacity:1"
         id="use71"
         xlink:href="#ayM1khWaa" />
    </g>
    <g
       id="g77">
      <use
         height="100%"
         width="100%"
         y="0"
         x="0"
         style="opacity:1;fill:#7128a7;fill-opacity:1"
         id="use75"
         xlink:href="#a6hkZ7U8dZ" />
    </g>
    <g
       id="g81">
      <use
         height="100%"
         width="100%"
         y="0"
         x="0"
         style="opacity:1;fill:#b06640;fill-opacity:1"
         id="use79"
         xlink:href="#c2cN0tYT3G" />
    </g>
    <g
       id="g85">
      <use
         height="100%"
         width="100%"
         y="0"
         x="0"
         style="opacity:1;fill:#ffffff;fill-opacity:1"
         id="use83"
         xlink:href="#e3KhCReeBD" />
    </g>
    <g
       id="g89">
      <use
         height="100%"
         width="100%"
         y="0"
         x="0"
         style="opacity:1;fill:#ffffff;fill-opacity:1"
         id="use87"
         xlink:href="#b1lnnaHNbS" />
    </g>
    <g
       id="g93">
      <use
         height="100%"
         width="100%"
         y="0"
         x="0"
         style="opacity:1;fill:#ffffff;fill-opacity:1"
         id="use91"
         xlink:href="#bzgvLrQw" />
    </g>
    <g
       id="g97">
      <use
         height="100%"
         width="100%"
         y="0"
         x="0"
         style="opacity:1;fill:#e1c27b;fill-opacity:1"
         id="use95"
         xlink:href="#bXV07JtHc" />
    </g>
    <g
       id="g101">
      <use
         height="100%"
         width="100%"
         y="0"
         x="0"
         style="opacity:1;fill:#ffffff;fill-opacity:1"
         id="use99"
         xlink:href="#cKVl0XwN7" />
    </g>
    <g
       id="g105">
      <use
         height="100%"
         width="100%"
         y="0"
         x="0"
         style="opacity:1;fill:#ffffff;fill-opacity:1"
         id="use103"
         xlink:href="#cGumNrLGT" />
    </g>
    <g
       id="g109">
      <use
         height="100%"
         width="100%"
         y="0"
         x="0"
         style="opacity:1;fill:#ffffff;fill-opacity:1"
         id="use107"
         xlink:href="#a2dRsWKTAn" />
    </g>
  </g>
</svg>
