<svg version="1.1" viewBox="0.0 0.0 136.1259842519685 136.1259842519685" fill="none" stroke="none" stroke-linecap="square" stroke-miterlimit="10" xmlns:xlink="http://www.w3.org/1999/xlink" xmlns="http://www.w3.org/2000/svg"><clipPath id="p.0"><path d="m0 0l136.12599 0l0 136.12599l-136.12599 0l0 -136.12599z" clip-rule="nonzero"/></clipPath><g clip-path="url(#p.0)"><path fill="#000000" fill-opacity="0.0" d="m0 0l136.12599 0l0 136.12599l-136.12599 0z" fill-rule="evenodd"/><path fill="#999999" d="m0 67.43307l0 0c0 -37.242252 30.190815 -67.43307 67.43307 -67.43307l0 0c17.884369 0 35.036232 7.104535 47.68239 19.750689c12.646149 12.646154 19.750679 29.798021 19.750679 47.68238l0 0c0 37.242264 -30.190804 67.43307 -67.43307 67.43307l0 0c-37.242252 0 -67.43307 -30.190804 -67.43307 -67.43307z" fill-rule="evenodd"/><path fill="#ffffff" d="m19.51181 58.29161l38.7798 0l0 -38.7798l18.28292 0l0 38.7798l38.7798 0l0 18.28292l-38.7798 0l0 38.7798l-18.28292 0l0 -38.7798l-38.7798 0z" fill-rule="evenodd"/></g></svg>