<?xml version="1.0" encoding="UTF-8" standalone="no"?>
<!DOCTYPE svg PUBLIC "-//W3C//DTD SVG 1.1//EN" "http://www.w3.org/Graphics/SVG/1.1/DTD/svg11.dtd">
<svg version="1.1" xmlns="http://www.w3.org/2000/svg" xmlns:xlink="http://www.w3.org/1999/xlink" preserveAspectRatio="xMidYMid meet" viewBox="0 0 640 640" width="640" height="640"><defs><path d="M568.85 371.05C568.85 508.16 457.53 619.48 320.41 619.48C183.3 619.48 71.98 508.16 71.98 371.05C71.98 233.93 183.3 122.61 320.41 122.61C457.53 122.61 568.85 233.93 568.85 371.05Z" id="axWbcsZxH"></path><path d="" id="a3WcGdaPEy"></path><path d="M271.05 102.59L323.78 102.59L372.67 102.59L372.67 152.59L271.05 152.59L271.05 102.59Z" id="a1omTXCspi"></path><path d="M346.86 86.82C346.86 100.62 335.66 111.82 321.86 111.82C308.06 111.82 296.86 100.62 296.86 86.82C296.86 73.02 308.06 61.82 321.86 61.82C335.66 61.82 346.86 73.02 346.86 86.82Z" id="a21V7aPRNB"></path><path d="M368.08 254.07C355.26 272.72 333.95 280.39 320.54 271.17C307.13 261.95 306.66 239.31 319.49 220.65C332.31 202 353.62 194.33 367.03 203.55C380.44 212.77 380.91 235.41 368.08 254.07Z" id="b1xdPhfLHp"></path><path d="M252.25 254.07C265.08 272.72 286.38 280.39 299.79 271.17C313.2 261.95 313.68 239.31 300.85 220.65C288.02 202 266.72 194.33 253.31 203.55C239.9 212.77 239.42 235.41 252.25 254.07Z" id="b11ill16IX"></path><path d="M187.09 256.59L425.55 256.59L425.55 495.05L187.09 495.05L187.09 256.59Z" id="b13rkfIoQN"></path><path d="M285.81 256.59L334.53 256.59L334.53 495.05L285.81 495.05L285.81 256.59Z" id="c1jr8Kwoux"></path><path d="M187.09 352.74L425.55 352.74L425.55 398.9L187.09 398.9L187.09 352.74Z" id="a4Jhm9IFf7"></path><path d="M466.44 434.8C474.94 434.8 481.82 441.68 481.82 450.18C481.82 453.26 481.82 447.1 481.82 450.18C481.82 458.68 474.94 465.57 466.44 465.57C437.15 465.57 364.67 465.57 335.38 465.57C326.89 465.57 320 458.68 320 450.18C320 447.1 320 453.26 320 450.18C320 441.68 326.89 434.8 335.38 434.8C364.67 434.8 437.15 434.8 466.44 434.8Z" id="bnpbiXAaA"></path><path d="M472.41 371.05C481.23 371.05 488.37 378.19 488.37 387.01C488.37 398.69 488.37 417.76 488.37 429.44C488.37 438.26 481.23 445.41 472.41 445.41C451.27 445.41 403.82 445.41 382.68 445.41C373.87 445.41 366.72 438.26 366.72 429.44C366.72 417.76 366.72 398.69 366.72 387.01C366.72 378.19 373.87 371.05 382.68 371.05C403.82 371.05 451.27 371.05 472.41 371.05Z" id="c3vsFY0T5j"></path><path d="M432.25 404.03C440.74 404.03 447.63 410.91 447.63 419.41C447.63 422.49 447.63 416.33 447.63 419.41C447.63 427.91 440.74 434.8 432.25 434.8C402.96 434.8 330.48 434.8 301.19 434.8C292.7 434.8 285.81 427.91 285.81 419.41C285.81 416.33 285.81 422.49 285.81 419.41C285.81 410.91 292.7 404.03 301.19 404.03C330.48 404.03 402.96 404.03 432.25 404.03Z" id="f4QL5aXIgb"></path><path d="M450.03 375.82C458.53 375.82 465.41 382.71 465.41 391.21C465.41 394.28 465.41 388.13 465.41 391.21C465.41 399.7 458.53 406.59 450.03 406.59C420.74 406.59 348.26 406.59 318.97 406.59C310.48 406.59 303.59 399.7 303.59 391.21C303.59 388.13 303.59 394.28 303.59 391.21C303.59 382.71 310.48 375.82 318.97 375.82C348.26 375.82 420.74 375.82 450.03 375.82Z" id="dVuPk4c5n"></path><path d="M472.41 375.82C481.23 375.82 488.37 382.97 488.37 391.78C488.37 403.46 488.37 422.54 488.37 434.22C488.37 443.03 481.23 450.18 472.41 450.18C451.27 450.18 403.82 450.18 382.68 450.18C373.87 450.18 366.72 443.03 366.72 434.22C366.72 422.54 366.72 403.46 366.72 391.78C366.72 382.97 373.87 375.82 382.68 375.82C403.82 375.82 451.27 375.82 472.41 375.82Z" id="aqM3osSbe"></path><path d="M453.45 370.45C458.7 372.25 461.48 377.97 459.67 383.21C458.32 387.13 457.54 389.4 456.18 393.32C454.38 398.56 448.66 401.34 443.42 399.53C425.36 393.3 380.65 377.88 362.58 371.65C357.34 369.84 354.56 364.13 356.37 358.89C357.72 354.97 358.5 352.7 359.85 348.78C361.66 343.54 367.38 340.75 372.62 342.56C390.68 348.79 435.39 364.21 453.45 370.45Z" id="jEvnjGiwm"></path><path d="M553.61 391.46C560.49 391.46 566.06 397.04 566.06 403.92C566.06 412.61 566.06 426.21 566.06 434.9C566.06 441.78 560.49 447.36 553.61 447.36C531.77 447.36 478.71 447.36 456.87 447.36C449.99 447.36 444.41 441.78 444.41 434.9C444.41 426.21 444.41 412.61 444.41 403.92C444.41 397.04 449.99 391.46 456.87 391.46C478.71 391.46 531.77 391.46 553.61 391.46Z" id="bd4NHDVc7"></path><path d="M472.41 375.82C481.23 375.82 488.37 382.97 488.37 391.78C488.37 403.46 488.37 422.54 488.37 434.22C488.37 443.03 481.23 450.18 472.41 450.18C451.27 450.18 403.82 450.18 382.68 450.18C373.87 450.18 366.72 443.03 366.72 434.22C366.72 422.54 366.72 403.46 366.72 391.78C366.72 382.97 373.87 375.82 382.68 375.82C403.82 375.82 451.27 375.82 472.41 375.82Z" id="b2T0Kj4GUJ"></path></defs><g><g><g><use xlink:href="#axWbcsZxH" opacity="1" fill="#a628ea" fill-opacity="1"></use></g><g><g><use xlink:href="#a3WcGdaPEy" opacity="1" fill-opacity="0" stroke="#000000" stroke-width="2" stroke-opacity="1"></use></g></g><g><use xlink:href="#a1omTXCspi" opacity="1" fill="#818181" fill-opacity="1"></use></g><g><g><use xlink:href="#a21V7aPRNB" opacity="1" fill-opacity="0" stroke="#818181" stroke-width="8" stroke-opacity="1"></use></g></g><g><g><use xlink:href="#b1xdPhfLHp" opacity="1" fill-opacity="0" stroke="#ffffff" stroke-width="15" stroke-opacity="1"></use></g></g><g><g><use xlink:href="#b11ill16IX" opacity="1" fill-opacity="0" stroke="#ffffff" stroke-width="15" stroke-opacity="1"></use></g></g><g><use xlink:href="#b13rkfIoQN" opacity="1" fill="#ec0101" fill-opacity="1"></use></g><g><use xlink:href="#c1jr8Kwoux" opacity="1" fill="#ffffff" fill-opacity="1"></use></g><g><use xlink:href="#a4Jhm9IFf7" opacity="1" fill="#ffffff" fill-opacity="1"></use></g><g><use xlink:href="#bnpbiXAaA" opacity="1" fill="#873708" fill-opacity="1"></use><g><use xlink:href="#bnpbiXAaA" opacity="1" fill-opacity="0" stroke="#000000" stroke-width="1" stroke-opacity="1"></use></g></g><g><use xlink:href="#c3vsFY0T5j" opacity="1" fill="#873708" fill-opacity="1"></use><g><use xlink:href="#c3vsFY0T5j" opacity="1" fill-opacity="0" stroke="#000000" stroke-width="1" stroke-opacity="1"></use></g></g><g><use xlink:href="#f4QL5aXIgb" opacity="1" fill="#873708" fill-opacity="1"></use><g><use xlink:href="#f4QL5aXIgb" opacity="1" fill-opacity="0" stroke="#000000" stroke-width="1" stroke-opacity="1"></use></g></g><g><use xlink:href="#dVuPk4c5n" opacity="1" fill="#873708" fill-opacity="1"></use><g><use xlink:href="#dVuPk4c5n" opacity="1" fill-opacity="0" stroke="#000000" stroke-width="1" stroke-opacity="1"></use></g></g><g><use xlink:href="#aqM3osSbe" opacity="1" fill="#873708" fill-opacity="1"></use></g><g><use xlink:href="#jEvnjGiwm" opacity="1" fill="#873708" fill-opacity="1"></use><g><use xlink:href="#jEvnjGiwm" opacity="1" fill-opacity="0" stroke="#000000" stroke-width="1" stroke-opacity="1"></use></g></g><g><use xlink:href="#bd4NHDVc7" opacity="1" fill="#873708" fill-opacity="1"></use><g><use xlink:href="#bd4NHDVc7" opacity="1" fill-opacity="0" stroke="#000000" stroke-width="1" stroke-opacity="1"></use></g></g><g><use xlink:href="#b2T0Kj4GUJ" opacity="1" fill="#873708" fill-opacity="1"></use></g></g></g></svg>