<?xml version="1.0" encoding="UTF-8" standalone="no"?>
<svg
   xmlns:dc="http://purl.org/dc/elements/1.1/"
   xmlns:cc="http://creativecommons.org/ns#"
   xmlns:rdf="http://www.w3.org/1999/02/22-rdf-syntax-ns#"
   xmlns:svg="http://www.w3.org/2000/svg"
   xmlns="http://www.w3.org/2000/svg"
   xmlns:xlink="http://www.w3.org/1999/xlink"
   xmlns:sodipodi="http://sodipodi.sourceforge.net/DTD/sodipodi-0.dtd"
   xmlns:inkscape="http://www.inkscape.org/namespaces/inkscape"
   version="1.1"
   preserveAspectRatio="xMidYMid meet"
   viewBox="0 0 640 640"
   width="640"
   height="640"
   id="svg5912"
   sodipodi:docname="signup.svg"
   inkscape:version="0.92.2 5c3e80d, 2017-08-06">
  <metadata
     id="metadata5916">
    <rdf:RDF>
      <cc:Work
         rdf:about="">
        <dc:format>image/svg+xml</dc:format>
        <dc:type
           rdf:resource="http://purl.org/dc/dcmitype/StillImage" />
      </cc:Work>
    </rdf:RDF>
  </metadata>
  <sodipodi:namedview
     pagecolor="#ffffff"
     bordercolor="#666666"
     borderopacity="1"
     objecttolerance="10"
     gridtolerance="10"
     guidetolerance="10"
     inkscape:pageopacity="0"
     inkscape:pageshadow="2"
     inkscape:window-width="738"
     inkscape:window-height="480"
     id="namedview5914"
     showgrid="false"
     inkscape:zoom="0.36875"
     inkscape:cx="320"
     inkscape:cy="320"
     inkscape:window-x="0"
     inkscape:window-y="0"
     inkscape:window-maximized="0"
     inkscape:current-layer="g5908" />
  <defs
     id="defs5768">
    <path
       d="M568.85 371.05C568.85 508.16 457.53 619.48 320.41 619.48C183.3 619.48 71.98 508.16 71.98 371.05C71.98 233.93 183.3 122.61 320.41 122.61C457.53 122.61 568.85 233.93 568.85 371.05Z"
       id="a2JeTMsBWK" />
    <path
       d="M436.95 206.1C441.17 206.1 444.58 209.51 444.58 213.73C444.58 280.46 444.58 473.02 444.58 539.75C444.58 543.96 441.17 547.37 436.95 547.37C388.65 547.37 251.35 547.37 203.05 547.37C198.83 547.37 195.42 543.96 195.42 539.75C195.42 473.02 195.42 280.46 195.42 213.73C195.42 209.51 198.83 206.1 203.05 206.1C251.35 206.1 388.65 206.1 436.95 206.1Z"
       id="f15FnEi8dJ" />
    <path
       d="M221.09 238.57L433.25 238.57C433.25 236.8 433.25 260.46 433.25 309.54C433.25 358.62 433.25 433.11 433.25 533.03L221.09 533.03L221.09 238.57Z"
       id="dnbZYaOXt" />
    <path
       d="M215.78 234.11L427.94 234.11L427.94 528.57L215.78 528.57L215.78 234.11Z"
       id="b1fNd7ncI" />
    <path
       d="M376.52 223.92C380.73 223.92 384.14 227.33 384.14 231.54C384.14 234.1 384.14 234.13 384.14 236.68C384.14 240.89 380.73 244.3 376.52 244.3C353.59 244.3 292.42 244.3 269.49 244.3C265.28 244.3 261.86 240.89 261.86 236.68C261.86 234.13 261.86 234.1 261.86 231.54C261.86 227.33 265.28 223.92 269.49 223.92C292.42 223.92 353.59 223.92 376.52 223.92Z"
       id="a1pjSww2gE" />
    <path
       d="M282.52 238.47L272.19 254.25L261.86 238.47L282.52 238.47Z"
       id="g2PTitsVz" />
    <path
       d="M295.63 238.47L285.3 254.25L274.97 238.47L295.63 238.47Z"
       id="jexjVqvRQ" />
    <path
       d="M308.02 238.47L297.69 254.25L287.36 238.47L308.02 238.47Z"
       id="elZbsNtDK" />
    <path
       d="M320.41 238.47L310.08 254.25L299.75 238.47L320.41 238.47Z"
       id="a7wLSezmpd" />
    <path
       d="M333.52 238.47L323.19 254.25L312.86 238.47L333.52 238.47Z"
       id="lObgGsx2i" />
    <path
       d="M345.91 238.47L335.58 254.25L325.25 238.47L345.91 238.47Z"
       id="a3gXSkFYN5" />
    <path
       d="M358.54 238.47L348.21 254.25L337.88 238.47L358.54 238.47Z"
       id="aBoVTBXA" />
    <path
       d="M384.14 238.47L373.81 254.25L363.48 238.47L384.14 238.47Z"
       id="d1az8l76vl" />
    <path
       d="M371.65 238.47L361.32 254.25L350.99 238.47L371.65 238.47Z"
       id="e9Uruj2ix" />
    <path
       d="M235.7 269.93L408.02 269.93L408.02 285.78L235.7 285.78L235.7 269.93Z"
       id="brQ26UB0k" />
    <path
       d="M235.7 303.8L408.02 303.8L408.02 319.65L235.7 319.65L235.7 303.8Z"
       id="b31fxaRMRX" />
    <path
       d="M235.7 337.67L408.02 337.67L408.02 353.52L235.7 353.52L235.7 337.67Z"
       id="d3oL8ZNHIb" />
    <path
       d="M235.7 371.05L408.02 371.05L408.02 386.89L235.7 386.89L235.7 371.05Z"
       id="h2BezTdQnl" />
    <path
       d="M235.7 407.89L408.02 407.89L408.02 423.73L235.7 423.73L235.7 407.89Z"
       id="a1mFWixpn5" />
    <path
       d="M235.7 441.26L408.02 441.26L408.02 457.11L235.7 457.11L235.7 441.26Z"
       id="d1mlP5UdD" />
    <path
       d="M335.58 490.78C329.97 490.78 323.06 493.75 314.84 499.7C308.64 504.32 302.23 506.63 295.63 506.63C289.03 506.63 282.91 504.32 277.29 499.7C269.37 492.76 262.77 489.3 257.48 489.3C252.2 489.3 244.94 492.76 235.7 499.7"
       id="a6DGL9LijZ" />
    <path
       d=""
       id="a3WcGdaPEy" />
    <path
       d="M271.05 102.59L323.78 102.59L372.67 102.59L372.67 152.59L271.05 152.59L271.05 102.59Z"
       id="a1omTXCspi" />
    <path
       d="M346.86 86.82C346.86 100.62 335.66 111.82 321.86 111.82C308.06 111.82 296.86 100.62 296.86 86.82C296.86 73.02 308.06 61.82 321.86 61.82C335.66 61.82 346.86 73.02 346.86 86.82Z"
       id="a21V7aPRNB" />
  </defs>
  <g
     id="g5910">
    <g
       id="g5908">
      <use
         height="100%"
         width="100%"
         y="0"
         x="0"
         style="opacity:1;fill:#8cce9d;fill-opacity:1"
         id="use5770"
         xlink:href="#a2JeTMsBWK" />
      <g
         id="g5776">
        <use
           xlink:href="#f15FnEi8dJ"
           opacity="1"
           fill="#8c5936"
           fill-opacity="1"
           id="use5774" />
      </g>
      <g
         id="g5780">
        <use
           xlink:href="#dnbZYaOXt"
           opacity="1"
           fill="#686868"
           fill-opacity="1"
           id="use5778" />
      </g>
      <g
         id="g5784">
        <use
           xlink:href="#b1fNd7ncI"
           opacity="1"
           fill="#efede7"
           fill-opacity="1"
           id="use5782" />
      </g>
      <g
         id="g5788">
        <use
           xlink:href="#a1pjSww2gE"
           opacity="1"
           fill="#ffd95f"
           fill-opacity="1"
           id="use5786" />
      </g>
      <g
         id="g5796">
        <use
           xlink:href="#g2PTitsVz"
           opacity="1"
           fill="#dbb358"
           fill-opacity="1"
           id="use5790" />
        <g
           id="g5794">
          <use
             xlink:href="#g2PTitsVz"
             opacity="1"
             fill-opacity="0"
             stroke="#000000"
             stroke-width="0"
             stroke-opacity="1"
             id="use5792" />
        </g>
      </g>
      <g
         id="g5804">
        <use
           xlink:href="#jexjVqvRQ"
           opacity="1"
           fill="#dbb358"
           fill-opacity="1"
           id="use5798" />
        <g
           id="g5802">
          <use
             xlink:href="#jexjVqvRQ"
             opacity="1"
             fill-opacity="0"
             stroke="#000000"
             stroke-width="0"
             stroke-opacity="1"
             id="use5800" />
        </g>
      </g>
      <g
         id="g5812">
        <use
           xlink:href="#elZbsNtDK"
           opacity="1"
           fill="#dbb358"
           fill-opacity="1"
           id="use5806" />
        <g
           id="g5810">
          <use
             xlink:href="#elZbsNtDK"
             opacity="1"
             fill-opacity="0"
             stroke="#000000"
             stroke-width="0"
             stroke-opacity="1"
             id="use5808" />
        </g>
      </g>
      <g
         id="g5820">
        <use
           xlink:href="#a7wLSezmpd"
           opacity="1"
           fill="#dbb358"
           fill-opacity="1"
           id="use5814" />
        <g
           id="g5818">
          <use
             xlink:href="#a7wLSezmpd"
             opacity="1"
             fill-opacity="0"
             stroke="#000000"
             stroke-width="0"
             stroke-opacity="1"
             id="use5816" />
        </g>
      </g>
      <g
         id="g5828">
        <use
           xlink:href="#lObgGsx2i"
           opacity="1"
           fill="#dbb358"
           fill-opacity="1"
           id="use5822" />
        <g
           id="g5826">
          <use
             xlink:href="#lObgGsx2i"
             opacity="1"
             fill-opacity="0"
             stroke="#000000"
             stroke-width="0"
             stroke-opacity="1"
             id="use5824" />
        </g>
      </g>
      <g
         id="g5836">
        <use
           xlink:href="#a3gXSkFYN5"
           opacity="1"
           fill="#dbb358"
           fill-opacity="1"
           id="use5830" />
        <g
           id="g5834">
          <use
             xlink:href="#a3gXSkFYN5"
             opacity="1"
             fill-opacity="0"
             stroke="#000000"
             stroke-width="0"
             stroke-opacity="1"
             id="use5832" />
        </g>
      </g>
      <g
         id="g5844">
        <use
           xlink:href="#aBoVTBXA"
           opacity="1"
           fill="#dbb358"
           fill-opacity="1"
           id="use5838" />
        <g
           id="g5842">
          <use
             xlink:href="#aBoVTBXA"
             opacity="1"
             fill-opacity="0"
             stroke="#000000"
             stroke-width="0"
             stroke-opacity="1"
             id="use5840" />
        </g>
      </g>
      <g
         id="g5852">
        <use
           xlink:href="#d1az8l76vl"
           opacity="1"
           fill="#dbb358"
           fill-opacity="1"
           id="use5846" />
        <g
           id="g5850">
          <use
             xlink:href="#d1az8l76vl"
             opacity="1"
             fill-opacity="0"
             stroke="#000000"
             stroke-width="0"
             stroke-opacity="1"
             id="use5848" />
        </g>
      </g>
      <g
         id="g5860">
        <use
           xlink:href="#e9Uruj2ix"
           opacity="1"
           fill="#dbb358"
           fill-opacity="1"
           id="use5854" />
        <g
           id="g5858">
          <use
             xlink:href="#e9Uruj2ix"
             opacity="1"
             fill-opacity="0"
             stroke="#000000"
             stroke-width="0"
             stroke-opacity="1"
             id="use5856" />
        </g>
      </g>
      <g
         id="g5864">
        <use
           xlink:href="#brQ26UB0k"
           opacity="1"
           fill="#adadad"
           fill-opacity="1"
           id="use5862" />
      </g>
      <g
         id="g5868">
        <use
           xlink:href="#b31fxaRMRX"
           opacity="1"
           fill="#adadad"
           fill-opacity="1"
           id="use5866" />
      </g>
      <g
         id="g5872">
        <use
           xlink:href="#d3oL8ZNHIb"
           opacity="1"
           fill="#adadad"
           fill-opacity="1"
           id="use5870" />
      </g>
      <g
         id="g5876">
        <use
           xlink:href="#h2BezTdQnl"
           opacity="1"
           fill="#adadad"
           fill-opacity="1"
           id="use5874" />
      </g>
      <g
         id="g5880">
        <use
           xlink:href="#a1mFWixpn5"
           opacity="1"
           fill="#adadad"
           fill-opacity="1"
           id="use5878" />
      </g>
      <g
         id="g5884">
        <use
           xlink:href="#d1mlP5UdD"
           opacity="1"
           fill="#adadad"
           fill-opacity="1"
           id="use5882" />
      </g>
      <g
         id="g5890">
        <g
           id="g5888">
          <use
             xlink:href="#a6DGL9LijZ"
             opacity="1"
             fill-opacity="0"
             stroke="#a8a8a8"
             stroke-width="13"
             stroke-opacity="1"
             id="use5886" />
        </g>
      </g>
      <g
         id="g5896">
        <g
           id="g5894">
          <use
             xlink:href="#a3WcGdaPEy"
             opacity="1"
             fill-opacity="0"
             stroke="#000000"
             stroke-width="2"
             stroke-opacity="1"
             id="use5892" />
        </g>
      </g>
      <g
         id="g5900">
        <use
           xlink:href="#a1omTXCspi"
           opacity="1"
           fill="#818181"
           fill-opacity="1"
           id="use5898" />
      </g>
      <g
         id="g5906">
        <g
           id="g5904">
          <use
             xlink:href="#a21V7aPRNB"
             opacity="1"
             fill-opacity="0"
             stroke="#818181"
             stroke-width="8"
             stroke-opacity="1"
             id="use5902" />
        </g>
      </g>
    </g>
  </g>
</svg>
