<?xml version="1.0" encoding="UTF-8" standalone="no"?>
<!DOCTYPE svg PUBLIC "-//W3C//DTD SVG 1.1//EN" "http://www.w3.org/Graphics/SVG/1.1/DTD/svg11.dtd">
<svg version="1.1" xmlns="http://www.w3.org/2000/svg" xmlns:xlink="http://www.w3.org/1999/xlink" preserveAspectRatio="xMidYMid meet" viewBox="0 0 640 640" width="640" height="640"><defs><path d="M568.85 371.05C568.85 508.16 457.53 619.48 320.41 619.48C183.3 619.48 71.98 508.16 71.98 371.05C71.98 233.93 183.3 122.61 320.41 122.61C457.53 122.61 568.85 233.93 568.85 371.05Z" id="a2JeTMsBWK"></path><path d="M436.95 206.1C441.17 206.1 444.58 209.51 444.58 213.73C444.58 280.46 444.58 473.02 444.58 539.75C444.58 543.96 441.17 547.37 436.95 547.37C388.65 547.37 251.35 547.37 203.05 547.37C198.83 547.37 195.42 543.96 195.42 539.75C195.42 473.02 195.42 280.46 195.42 213.73C195.42 209.51 198.83 206.1 203.05 206.1C251.35 206.1 388.65 206.1 436.95 206.1Z" id="f15FnEi8dJ"></path><path d="M221.09 238.57L433.25 238.57C433.25 236.8 433.25 260.46 433.25 309.54C433.25 358.62 433.25 433.11 433.25 533.03L221.09 533.03L221.09 238.57Z" id="dnbZYaOXt"></path><path d="M215.78 234.11L427.94 234.11L427.94 528.57L215.78 528.57L215.78 234.11Z" id="b1fNd7ncI"></path><path d="M376.52 223.92C380.73 223.92 384.14 227.33 384.14 231.54C384.14 234.1 384.14 234.13 384.14 236.68C384.14 240.89 380.73 244.3 376.52 244.3C353.59 244.3 292.42 244.3 269.49 244.3C265.28 244.3 261.86 240.89 261.86 236.68C261.86 234.13 261.86 234.1 261.86 231.54C261.86 227.33 265.28 223.92 269.49 223.92C292.42 223.92 353.59 223.92 376.52 223.92Z" id="a1pjSww2gE"></path><path d="M282.52 238.47L272.19 254.25L261.86 238.47L282.52 238.47Z" id="g2PTitsVz"></path><path d="M295.63 238.47L285.3 254.25L274.97 238.47L295.63 238.47Z" id="jexjVqvRQ"></path><path d="M308.02 238.47L297.69 254.25L287.36 238.47L308.02 238.47Z" id="elZbsNtDK"></path><path d="M320.41 238.47L310.08 254.25L299.75 238.47L320.41 238.47Z" id="a7wLSezmpd"></path><path d="M333.52 238.47L323.19 254.25L312.86 238.47L333.52 238.47Z" id="lObgGsx2i"></path><path d="M345.91 238.47L335.58 254.25L325.25 238.47L345.91 238.47Z" id="a3gXSkFYN5"></path><path d="M358.54 238.47L348.21 254.25L337.88 238.47L358.54 238.47Z" id="aBoVTBXA"></path><path d="M384.14 238.47L373.81 254.25L363.48 238.47L384.14 238.47Z" id="d1az8l76vl"></path><path d="M371.65 238.47L361.32 254.25L350.99 238.47L371.65 238.47Z" id="e9Uruj2ix"></path><path d="M235.7 269.93L408.02 269.93L408.02 285.78L235.7 285.78L235.7 269.93Z" id="brQ26UB0k"></path><path d="M235.7 303.8L408.02 303.8L408.02 319.65L235.7 319.65L235.7 303.8Z" id="b31fxaRMRX"></path><path d="M235.7 337.67L408.02 337.67L408.02 353.52L235.7 353.52L235.7 337.67Z" id="d3oL8ZNHIb"></path><path d="M235.7 371.05L408.02 371.05L408.02 386.89L235.7 386.89L235.7 371.05Z" id="h2BezTdQnl"></path><path d="M235.7 407.89L408.02 407.89L408.02 423.73L235.7 423.73L235.7 407.89Z" id="a1mFWixpn5"></path><path d="M235.7 441.26L408.02 441.26L408.02 457.11L235.7 457.11L235.7 441.26Z" id="d1mlP5UdD"></path><path d="M335.58 490.78C329.97 490.78 323.06 493.75 314.84 499.7C308.64 504.32 302.23 506.63 295.63 506.63C289.03 506.63 282.91 504.32 277.29 499.7C269.37 492.76 262.77 489.3 257.48 489.3C252.2 489.3 244.94 492.76 235.7 499.7" id="a6DGL9LijZ"></path><path d="" id="a3WcGdaPEy"></path><path d="M271.05 102.59L323.78 102.59L372.67 102.59L372.67 152.59L271.05 152.59L271.05 102.59Z" id="a1omTXCspi"></path><path d="M346.86 86.82C346.86 100.62 335.66 111.82 321.86 111.82C308.06 111.82 296.86 100.62 296.86 86.82C296.86 73.02 308.06 61.82 321.86 61.82C335.66 61.82 346.86 73.02 346.86 86.82Z" id="a21V7aPRNB"></path></defs><g><g><g><use xlink:href="#a2JeTMsBWK" opacity="1" fill="#1b9c00" fill-opacity="1"></use></g><g><use xlink:href="#f15FnEi8dJ" opacity="1" fill="#8c5936" fill-opacity="1"></use></g><g><use xlink:href="#dnbZYaOXt" opacity="1" fill="#686868" fill-opacity="1"></use></g><g><use xlink:href="#b1fNd7ncI" opacity="1" fill="#efede7" fill-opacity="1"></use></g><g><use xlink:href="#a1pjSww2gE" opacity="1" fill="#ffd95f" fill-opacity="1"></use></g><g><use xlink:href="#g2PTitsVz" opacity="1" fill="#dbb358" fill-opacity="1"></use><g><use xlink:href="#g2PTitsVz" opacity="1" fill-opacity="0" stroke="#000000" stroke-width="0" stroke-opacity="1"></use></g></g><g><use xlink:href="#jexjVqvRQ" opacity="1" fill="#dbb358" fill-opacity="1"></use><g><use xlink:href="#jexjVqvRQ" opacity="1" fill-opacity="0" stroke="#000000" stroke-width="0" stroke-opacity="1"></use></g></g><g><use xlink:href="#elZbsNtDK" opacity="1" fill="#dbb358" fill-opacity="1"></use><g><use xlink:href="#elZbsNtDK" opacity="1" fill-opacity="0" stroke="#000000" stroke-width="0" stroke-opacity="1"></use></g></g><g><use xlink:href="#a7wLSezmpd" opacity="1" fill="#dbb358" fill-opacity="1"></use><g><use xlink:href="#a7wLSezmpd" opacity="1" fill-opacity="0" stroke="#000000" stroke-width="0" stroke-opacity="1"></use></g></g><g><use xlink:href="#lObgGsx2i" opacity="1" fill="#dbb358" fill-opacity="1"></use><g><use xlink:href="#lObgGsx2i" opacity="1" fill-opacity="0" stroke="#000000" stroke-width="0" stroke-opacity="1"></use></g></g><g><use xlink:href="#a3gXSkFYN5" opacity="1" fill="#dbb358" fill-opacity="1"></use><g><use xlink:href="#a3gXSkFYN5" opacity="1" fill-opacity="0" stroke="#000000" stroke-width="0" stroke-opacity="1"></use></g></g><g><use xlink:href="#aBoVTBXA" opacity="1" fill="#dbb358" fill-opacity="1"></use><g><use xlink:href="#aBoVTBXA" opacity="1" fill-opacity="0" stroke="#000000" stroke-width="0" stroke-opacity="1"></use></g></g><g><use xlink:href="#d1az8l76vl" opacity="1" fill="#dbb358" fill-opacity="1"></use><g><use xlink:href="#d1az8l76vl" opacity="1" fill-opacity="0" stroke="#000000" stroke-width="0" stroke-opacity="1"></use></g></g><g><use xlink:href="#e9Uruj2ix" opacity="1" fill="#dbb358" fill-opacity="1"></use><g><use xlink:href="#e9Uruj2ix" opacity="1" fill-opacity="0" stroke="#000000" stroke-width="0" stroke-opacity="1"></use></g></g><g><use xlink:href="#brQ26UB0k" opacity="1" fill="#adadad" fill-opacity="1"></use></g><g><use xlink:href="#b31fxaRMRX" opacity="1" fill="#adadad" fill-opacity="1"></use></g><g><use xlink:href="#d3oL8ZNHIb" opacity="1" fill="#adadad" fill-opacity="1"></use></g><g><use xlink:href="#h2BezTdQnl" opacity="1" fill="#adadad" fill-opacity="1"></use></g><g><use xlink:href="#a1mFWixpn5" opacity="1" fill="#adadad" fill-opacity="1"></use></g><g><use xlink:href="#d1mlP5UdD" opacity="1" fill="#adadad" fill-opacity="1"></use></g><g><g><use xlink:href="#a6DGL9LijZ" opacity="1" fill-opacity="0" stroke="#a8a8a8" stroke-width="13" stroke-opacity="1"></use></g></g><g><g><use xlink:href="#a3WcGdaPEy" opacity="1" fill-opacity="0" stroke="#000000" stroke-width="2" stroke-opacity="1"></use></g></g><g><use xlink:href="#a1omTXCspi" opacity="1" fill="#818181" fill-opacity="1"></use></g><g><g><use xlink:href="#a21V7aPRNB" opacity="1" fill-opacity="0" stroke="#818181" stroke-width="8" stroke-opacity="1"></use></g></g></g></g></svg>