<?xml version="1.0" encoding="UTF-8" standalone="no"?>
<svg
   xmlns:dc="http://purl.org/dc/elements/1.1/"
   xmlns:cc="http://creativecommons.org/ns#"
   xmlns:rdf="http://www.w3.org/1999/02/22-rdf-syntax-ns#"
   xmlns:svg="http://www.w3.org/2000/svg"
   xmlns="http://www.w3.org/2000/svg"
   xmlns:xlink="http://www.w3.org/1999/xlink"
   xmlns:sodipodi="http://sodipodi.sourceforge.net/DTD/sodipodi-0.dtd"
   xmlns:inkscape="http://www.inkscape.org/namespaces/inkscape"
   version="1.1"
   preserveAspectRatio="xMidYMid meet"
   viewBox="50 100 500 450"
   width="640"
   height="640"
   id="svg7295"
   sodipodi:docname="willow.svg"
   inkscape:version="0.92.2 5c3e80d, 2017-08-06">
  <metadata
     id="metadata7299">
    <rdf:RDF>
      <cc:Work
         rdf:about="">
        <dc:format>image/svg+xml</dc:format>
        <dc:type
           rdf:resource="http://purl.org/dc/dcmitype/StillImage" />
      </cc:Work>
    </rdf:RDF>
  </metadata>
  <sodipodi:namedview
     pagecolor="#ffffff"
     bordercolor="#666666"
     borderopacity="1"
     objecttolerance="10"
     gridtolerance="10"
     guidetolerance="10"
     inkscape:pageopacity="0"
     inkscape:pageshadow="2"
     inkscape:window-width="738"
     inkscape:window-height="480"
     id="namedview7297"
     showgrid="false"
     inkscape:zoom="0.36875"
     inkscape:cx="320"
     inkscape:cy="320"
     inkscape:window-x="0"
     inkscape:window-y="0"
     inkscape:window-maximized="0"
     inkscape:current-layer="g7217" />
  <defs
     id="defs6961">
    <path
       d="M295.32 288.36L250.95 296.97L194.24 421.81L283 327.11L329.84 365.85L295.32 288.36Z"
       id="avqzaqAAK" />
    <path
       d="M258.28 264.69L213.9 273.3L157.2 398.13L245.95 303.43L292.8 342.17L258.28 264.69Z"
       id="a1KE83nuMl" />
    <path
       d="M345.45 382.21L294.62 369.29L220.69 416.64L313.75 399.43L373.51 438.17L345.45 382.21Z"
       id="a1yi40rot9" />
    <path
       d="M313.17 313.33L262.33 300.42L188.41 347.77L281.47 330.55L341.23 369.29L313.17 313.33Z"
       id="bcvnXWeY" />
    <path
       d="M321.78 253.34L277.4 261.95L220.69 386.78L309.45 292.08L356.29 330.82L321.78 253.34Z"
       id="b14S29s9nz" />
    <path
       d="M327.31 302.57L371.69 311.18L428.4 436.02L339.64 341.31L292.8 380.05L327.31 302.57Z"
       id="b5SIbvGacJ" />
    <path
       d="M385.27 277.6L334.44 264.69L260.51 312.04L353.57 294.82L413.33 333.56L385.27 277.6Z"
       id="b2iRxsCvn4" />
    <path
       d="M325.61 287.16L369.99 295.77L426.7 420.61L337.94 325.9L291.1 364.64L325.61 287.16Z"
       id="a755JWDYRk" />
    <path
       d="M374.48 297.92L401.88 318.79L450.37 409.84L374.48 326.38L323.38 347.24L374.48 297.92Z"
       id="a1GkLqgAip" />
    <path
       d="M262.12 315.57L312.95 302.66L386.88 350.01L293.82 332.79L234.06 371.53L262.12 315.57Z"
       id="e12adRWXoB" />
    <path
       d="M362.74 327.77L407.12 336.38L463.83 461.21L375.07 366.51L328.23 405.25L362.74 327.77Z"
       id="a3NPvj0cf" />
    <path
       d="M209.42 275.45L182.01 296.32L133.52 387.37L209.42 303.91L260.51 324.77L209.42 275.45Z"
       id="b147GrjOyn" />
    <path
       d="M321.78 293.1L270.94 280.19L197.02 327.54L290.08 310.32L349.84 349.06L321.78 293.1Z"
       id="asuF1AkE8" />
    <path
       d="M230.3 309.89L185.92 318.5L129.22 443.33L217.97 348.63L264.82 387.37L230.3 309.89Z"
       id="j1FM0VJJR4" />
    <path
       d="M197.36 264.69L169.96 285.56L121.47 376.61L197.36 293.14L248.46 314.01L197.36 264.69Z"
       id="c1EYSaEelm" />
    <path
       d="M189.66 292.76L162.26 313.62L113.77 404.68L189.66 321.21L240.76 342.08L189.66 292.76Z"
       id="a3Ewleczc" />
    <path
       d="M245.37 400.29L194.53 387.37L120.61 434.72L213.67 417.51L273.43 456.25L245.37 400.29Z"
       id="aqtCwZ813" />
    <path
       d="M233.09 382.21L205.69 403.07L157.2 494.13L233.09 410.66L284.19 431.53L233.09 382.21Z"
       id="gbc5dkhul" />
    <path
       d="M400.52 274.45L427.92 295.31L476.41 386.37L400.52 302.9L349.42 323.77L400.52 274.45Z"
       id="aw9p2wtlH" />
    <path
       d="M398.91 295.25L426.31 316.12L474.8 407.17L398.91 323.71L347.81 344.57L398.91 295.25Z"
       id="e4K5WR2Ouz" />
    <path
       d="M338.53 422.76L389.36 409.84L463.29 457.2L370.23 439.98L310.47 478.72L338.53 422.76Z"
       id="d6fqkQs3K1" />
    <path
       d="M350.8 404.68L378.21 425.54L426.7 516.6L350.8 433.13L299.71 454L350.8 404.68Z"
       id="aovaQR5hJ" />
    <path
       d="M238.44 404.68L289.28 391.76L363.2 439.12L270.14 421.9L210.38 460.64L238.44 404.68Z"
       id="bgk3NqkpP" />
    <path
       d="M270.73 335.8L321.56 322.89L395.49 370.24L302.43 353.02L242.67 391.76L270.73 335.8Z"
       id="eRd2jKrs7" />
    <path
       d="M262.12 265.64L306.5 274.25L363.2 399.08L274.45 304.38L227.6 343.12L262.12 265.64Z"
       id="b265zTmtyP" />
    <path
       d="M198.62 300.07L249.46 287.16L323.38 334.51L230.32 317.29L170.57 356.03L198.62 300.07Z"
       id="aQUQRosy3" />
    <path
       d="M287.09 353.88L337.92 340.97L411.84 388.32L318.78 371.1L259.03 409.84L287.09 353.88Z"
       id="f2UNAQewyB" />
    <path
       d="M234.35 371.53L278.73 380.14L335.44 504.98L246.68 410.27L199.84 449.02L234.35 371.53Z"
       id="aeVXxmwxF" />
    <path
       d="M335.14 367.23L290.76 375.84L234.06 500.67L322.82 405.97L369.66 444.71L335.14 367.23Z"
       id="b1MLGRwvu" />
    <path
       d="M296.81 331.41L245.97 318.5L172.05 365.85L265.11 348.63L324.87 387.37L296.81 331.41Z"
       id="a1mNcBkAzp" />
    <path
       d="M413.33 388.48C413.33 450.86 360.75 501.5 296 501.5C231.24 501.5 178.66 450.86 178.66 388.48C178.66 326.1 231.24 275.45 296 275.45C360.75 275.45 413.33 326.1 413.33 388.48Z"
       id="a1hMm62X8H" />
    <path
       d="M372.3 264.54L416.68 273.15L473.38 397.98L384.63 303.28L337.79 342.02L372.3 264.54Z"
       id="b6Hz3348nk" />
    <path
       d="M256.58 325.04L212.2 333.65L155.5 458.49L244.25 363.78L291.1 402.53L256.58 325.04Z"
       id="eqX6AN2Qq" />
    <path
       d="M249.6 304.81L201.77 312.03L140.66 416.73L236.31 337.3L286.79 369.8L249.6 304.81Z"
       id="amyEp9ona" />
    <path
       d="M366.88 438.25L386.75 448.78L421.9 494.7L366.88 452.61L329.84 463.13L366.88 438.25Z"
       id="e1aZBJv5Mv" />
    <path
       d="M262.12 460.64L312.95 447.72L386.88 495.08L293.82 477.86L234.06 516.6L262.12 460.64Z"
       id="cbmqj8bkA" />
    <path
       d="M183.56 451.17L234.39 438.25L308.32 485.61L215.26 468.39L155.5 507.13L183.56 451.17Z"
       id="aS3Xr7Xb3" />
    <path
       d="M360.83 391.76L403.44 397.61L457.88 482.37L372.66 418.07L327.69 444.37L360.83 391.76Z"
       id="fdYwUrnup" />
    <path
       d="M331.62 282.34L376 290.95L432.7 415.78L343.95 321.08L297.1 359.82L331.62 282.34Z"
       id="aEX5GObEz" />
    <path
       d="M205.56 415.78L179.54 429.95L133.52 491.77L205.56 435.1L254.06 449.27L205.56 415.78Z"
       id="f1y4KmMIa2" />
    <path
       d="M321.78 438.17L270.94 425.25L197.02 472.61L290.08 455.39L349.84 494.13L321.78 438.17Z"
       id="nXGwOCFz9" />
    <path
       d="M400.34 428.7L349.5 415.78L275.58 463.14L368.64 445.92L428.4 484.66L400.34 428.7Z"
       id="o8yttwy8F" />
    <path
       d="M203.69 391.51L171.68 388.5L123.96 472.18L178.19 435.34L225.37 473.67L203.69 391.51Z"
       id="cBCZVIVpq" />
    <path
       d="M349.54 349.06L305.16 357.67L248.46 482.51L337.21 387.8L384.06 426.55L349.54 349.06Z"
       id="a20spmnzts" />
    <path
       d="M331.62 351.21L376 359.82L432.7 484.66L343.95 389.96L297.1 428.7L331.62 351.21Z"
       id="c4hATiAq8a" />
    <path
       d="M249.4 443.33L212.38 448.86L165.09 528.97L239.12 468.2L278.18 493.06L249.4 443.33Z"
       id="fm5kafbwj" />
    <path
       d="M303.5 291.81L276.09 312.68L227.6 403.73L303.5 320.26L354.59 341.13L303.5 291.81Z"
       id="cEzCyKENl" />
    <path
       d="M238.73 306.22L220.13 320.39L187.21 382.21L238.73 325.54L273.43 339.7L238.73 306.22Z"
       id="g3pMFos6QM" />
    <path
       d="M248.18 308.48L218.05 314.32L179.56 399.08L239.82 334.78L317.27 320.29L248.18 308.48Z"
       id="b4wNvO90KN" />
    <path
       d="M263.36 438.25L233.23 444.1L194.73 528.86L254.99 464.56L286.79 490.86L263.36 438.25Z"
       id="gBvsL3ZOx" />
    <path
       d="M331.75 436.02L361.88 441.86L400.38 526.62L340.12 462.32L308.32 488.62L331.75 436.02Z"
       id="dfVKJVY9m" />
    <path
       d="M319.81 463.51L338.42 477.68L371.34 539.5L319.81 482.83L285.12 497L319.81 463.51Z"
       id="a1wp68D3zs" />
    <path
       d="M299.25 275.45L253.34 283.13L194.68 394.49L286.5 310.01L411.84 330.34L299.25 275.45Z"
       id="d2tPe1oYsb" />
    <path
       d="M294.99 453.2L321.59 472.27L368.66 555.49L294.99 479.2L245.38 498.27L294.99 453.2Z"
       id="d1f9AiqJ96" />
    <path
       d="M385.01 472.41L336.4 460.79L265.71 503.39L354.7 487.9L411.84 522.76L385.01 472.41Z"
       id="cIP2cjSbA" />
    <path
       d="M385.95 452.45L361.54 467.82L318.36 534.88L385.95 473.41L431.45 488.78L385.95 452.45Z"
       id="bd8qtZ8k2" />
    <path
       d="M287.47 410.95L317.6 416.79L356.1 501.55L295.84 437.25L213.7 459.06L287.47 410.95Z"
       id="aXrYWvq5" />
    <path
       d="M378.91 358.56C378.91 374.14 363.84 386.78 345.27 386.78C326.71 386.78 311.64 374.14 311.64 358.56C311.64 342.98 326.71 330.34 345.27 330.34C363.84 330.34 378.91 342.98 378.91 358.56Z"
       id="arvNtBDFT" />
    <path
       d="M368.66 357.52C368.66 371.41 358.6 382.69 346.2 382.69C333.81 382.69 323.75 371.41 323.75 357.52C323.75 343.63 333.81 332.36 346.2 332.36C358.6 332.36 368.66 343.63 368.66 357.52Z"
       id="a1mxjKxYhY" />
    <path
       d="M358.63 279.09L312.72 286.77L216.06 396.63L345.88 313.65L394.34 348.21L358.63 279.09Z"
       id="b2LZc7s0a" />
    <path
       d="M392.79 275.45L376.6 198.72L409.94 175.92L483.77 163.26L494.15 140.46L420.91 108.79L322.79 121.46L255.65 169.59L213.73 266.12L392.79 275.45Z"
       id="aMW87afP" />
    <path
       d="M540.44 156.32C540.44 176.08 523.16 192.12 501.86 192.12C480.57 192.12 463.29 176.08 463.29 156.32C463.29 136.56 480.57 120.52 501.86 120.52C523.16 120.52 540.44 136.56 540.44 156.32Z"
       id="e31xhwXggP" />
    <path
       d="M378.71 269.21C411.22 280.45 402.3 262.1 419.36 272.64C436.43 283.19 434.51 288.56 419.36 295.38C409.26 299.92 398.37 298.37 386.68 290.73C354.27 283.33 325.21 279.1 299.51 278.02C273.8 276.94 245.92 277.27 215.86 279.02C213.55 289.68 204.33 291.98 188.21 285.91C172.09 279.84 170.94 271.64 184.77 261.29C189.94 244.29 199.52 241.15 213.53 251.87C227.53 262.59 247.43 264.27 273.23 256.91C321.87 257.61 357.03 261.71 378.71 269.21Z"
       id="bsebDbf6B" />
    <path
       d="M296 376.61L300.79 395.59L295.4 403.73L288.49 401.7L284.19 393.3L282.09 402.84L269.87 404.68L259.03 389.86L273.43 374.21L284.19 380.32L296 376.61Z"
       id="fQxNhEDE2" />
    <path
       d="M281.32 392.53L273.43 385.28L275.58 398.13L281.32 392.53Z"
       id="aJdxp6sVU" />
    <path
       d="M284.9 394.04L292.8 386.78L290.65 399.64L284.9 394.04Z"
       id="d1psDwV2OV" />
    <path
       d="M319.46 430.68L311.57 423.42L313.72 436.28L319.46 430.68Z"
       id="b3l263F8jP" />
    <path
       d="M332.18 443.39L324.28 436.14L326.43 448.99L332.18 443.39Z"
       id="bdS169lUx" />
    <path
       d="M259.6 402.42L289.73 408.27L328.23 493.03L267.97 428.73L185.83 450.54L259.6 402.42Z"
       id="dPdJU1MOQ" />
    <path
       d="M256.63 444.28L286.75 450.13L325.25 534.88L264.99 470.58L182.86 492.4L256.63 444.28Z"
       id="ceqGg3ktL" />
  </defs>
  <g
     id="g6965">
    <use
       xlink:href="#avqzaqAAK"
       id="use6963"
       style="opacity:1;fill:#212121;fill-opacity:1"
       x="0"
       y="0"
       width="100%"
       height="100%" />
  </g>
  <g
     id="g6969">
    <use
       xlink:href="#a1KE83nuMl"
       id="use6967"
       style="opacity:1;fill:#212121;fill-opacity:1"
       x="0"
       y="0"
       width="100%"
       height="100%" />
  </g>
  <g
     id="g6973">
    <use
       xlink:href="#a1yi40rot9"
       id="use6971"
       style="opacity:1;fill:#323232;fill-opacity:1"
       x="0"
       y="0"
       width="100%"
       height="100%" />
  </g>
  <g
     id="g6977">
    <use
       xlink:href="#bcvnXWeY"
       id="use6975"
       style="opacity:1;fill:#6c6c6c;fill-opacity:1"
       x="0"
       y="0"
       width="100%"
       height="100%" />
  </g>
  <g
     id="g6981">
    <use
       xlink:href="#b14S29s9nz"
       id="use6979"
       style="opacity:1;fill:#515151;fill-opacity:1"
       x="0"
       y="0"
       width="100%"
       height="100%" />
  </g>
  <g
     id="g6985">
    <use
       xlink:href="#b5SIbvGacJ"
       id="use6983"
       style="opacity:1;fill:#212121;fill-opacity:1"
       x="0"
       y="0"
       width="100%"
       height="100%" />
  </g>
  <g
     id="g6989">
    <use
       xlink:href="#b2iRxsCvn4"
       id="use6987"
       style="opacity:1;fill:#323232;fill-opacity:1"
       x="0"
       y="0"
       width="100%"
       height="100%" />
  </g>
  <g
     id="g6993">
    <use
       xlink:href="#a755JWDYRk"
       id="use6991"
       style="opacity:1;fill:#212121;fill-opacity:1"
       x="0"
       y="0"
       width="100%"
       height="100%" />
  </g>
  <g
     id="g6997">
    <use
       xlink:href="#a1GkLqgAip"
       id="use6995"
       style="opacity:1;fill:#aaaaaa;fill-opacity:1"
       x="0"
       y="0"
       width="100%"
       height="100%" />
  </g>
  <g
     id="g7001">
    <use
       xlink:href="#e12adRWXoB"
       id="use6999"
       style="opacity:1;fill:#323232;fill-opacity:1"
       x="0"
       y="0"
       width="100%"
       height="100%" />
  </g>
  <g
     id="g7005">
    <use
       xlink:href="#a3NPvj0cf"
       id="use7003"
       style="opacity:1;fill:#515151;fill-opacity:1"
       x="0"
       y="0"
       width="100%"
       height="100%" />
  </g>
  <g
     id="g7009">
    <use
       xlink:href="#b147GrjOyn"
       id="use7007"
       style="opacity:1;fill:#aaaaaa;fill-opacity:1"
       x="0"
       y="0"
       width="100%"
       height="100%" />
  </g>
  <g
     id="g7013">
    <use
       xlink:href="#asuF1AkE8"
       id="use7011"
       style="opacity:1;fill:#323232;fill-opacity:1"
       x="0"
       y="0"
       width="100%"
       height="100%" />
  </g>
  <g
     id="g7017">
    <use
       xlink:href="#j1FM0VJJR4"
       id="use7015"
       style="opacity:1;fill:#515151;fill-opacity:1"
       x="0"
       y="0"
       width="100%"
       height="100%" />
  </g>
  <g
     id="g7021">
    <use
       xlink:href="#c1EYSaEelm"
       id="use7019"
       style="opacity:1;fill:#272727;fill-opacity:1"
       x="0"
       y="0"
       width="100%"
       height="100%" />
  </g>
  <g
     id="g7025">
    <use
       xlink:href="#a3Ewleczc"
       id="use7023"
       style="opacity:1;fill:#1b1b1b;fill-opacity:1"
       x="0"
       y="0"
       width="100%"
       height="100%" />
  </g>
  <g
     id="g7029">
    <use
       xlink:href="#aqtCwZ813"
       id="use7027"
       style="opacity:1;fill:#323232;fill-opacity:1"
       x="0"
       y="0"
       width="100%"
       height="100%" />
  </g>
  <g
     id="g7033">
    <use
       xlink:href="#gbc5dkhul"
       id="use7031"
       style="opacity:1;fill:#474747;fill-opacity:1"
       x="0"
       y="0"
       width="100%"
       height="100%" />
  </g>
  <g
     id="g7037">
    <use
       xlink:href="#aw9p2wtlH"
       id="use7035"
       style="opacity:1;fill:#1b1b1b;fill-opacity:1"
       x="0"
       y="0"
       width="100%"
       height="100%" />
  </g>
  <g
     id="g7041">
    <use
       xlink:href="#e4K5WR2Ouz"
       id="use7039"
       style="opacity:1;fill:#1b1b1b;fill-opacity:1"
       x="0"
       y="0"
       width="100%"
       height="100%" />
  </g>
  <g
     id="g7045">
    <use
       xlink:href="#d6fqkQs3K1"
       id="use7043"
       style="opacity:1;fill:#323232;fill-opacity:1"
       x="0"
       y="0"
       width="100%"
       height="100%" />
  </g>
  <g
     id="g7049">
    <use
       xlink:href="#aovaQR5hJ"
       id="use7047"
       style="opacity:1;fill:#474747;fill-opacity:1"
       x="0"
       y="0"
       width="100%"
       height="100%" />
  </g>
  <g
     id="g7053">
    <use
       xlink:href="#bgk3NqkpP"
       id="use7051"
       style="opacity:1;fill:#323232;fill-opacity:1"
       x="0"
       y="0"
       width="100%"
       height="100%" />
  </g>
  <g
     id="g7057">
    <use
       xlink:href="#eRd2jKrs7"
       id="use7055"
       style="opacity:1;fill:#6c6c6c;fill-opacity:1"
       x="0"
       y="0"
       width="100%"
       height="100%" />
  </g>
  <g
     id="g7061">
    <use
       xlink:href="#b265zTmtyP"
       id="use7059"
       style="opacity:1;fill:#515151;fill-opacity:1"
       x="0"
       y="0"
       width="100%"
       height="100%" />
  </g>
  <g
     id="g7065">
    <use
       xlink:href="#aQUQRosy3"
       id="use7063"
       style="opacity:1;fill:#323232;fill-opacity:1"
       x="0"
       y="0"
       width="100%"
       height="100%" />
  </g>
  <g
     id="g7069">
    <use
       xlink:href="#f2UNAQewyB"
       id="use7067"
       style="opacity:1;fill:#323232;fill-opacity:1"
       x="0"
       y="0"
       width="100%"
       height="100%" />
  </g>
  <g
     id="g7073">
    <use
       xlink:href="#aeVXxmwxF"
       id="use7071"
       style="opacity:1;fill:#212121;fill-opacity:1"
       x="0"
       y="0"
       width="100%"
       height="100%" />
  </g>
  <g
     id="g7077">
    <use
       xlink:href="#b1MLGRwvu"
       id="use7075"
       style="opacity:1;fill:#515151;fill-opacity:1"
       x="0"
       y="0"
       width="100%"
       height="100%" />
  </g>
  <g
     id="g7081">
    <use
       xlink:href="#a1mNcBkAzp"
       id="use7079"
       style="opacity:1;fill:#323232;fill-opacity:1"
       x="0"
       y="0"
       width="100%"
       height="100%" />
  </g>
  <g
     id="g7085">
    <use
       xlink:href="#a1hMm62X8H"
       id="use7083"
       style="opacity:1;fill:#090909;fill-opacity:1"
       x="0"
       y="0"
       width="100%"
       height="100%" />
  </g>
  <g
     id="g7089">
    <use
       xlink:href="#b6Hz3348nk"
       id="use7087"
       style="opacity:1;fill:#2f2f2f;fill-opacity:1"
       x="0"
       y="0"
       width="100%"
       height="100%" />
  </g>
  <g
     id="g7093">
    <use
       xlink:href="#eqX6AN2Qq"
       id="use7091"
       style="opacity:1;fill:#212121;fill-opacity:1"
       x="0"
       y="0"
       width="100%"
       height="100%" />
  </g>
  <g
     id="g7097">
    <use
       xlink:href="#amyEp9ona"
       id="use7095"
       style="opacity:1;fill:#151515;fill-opacity:1"
       x="0"
       y="0"
       width="100%"
       height="100%" />
  </g>
  <g
     id="g7101">
    <use
       xlink:href="#e1aZBJv5Mv"
       id="use7099"
       style="opacity:1;fill:#1b1b1b;fill-opacity:1"
       x="0"
       y="0"
       width="100%"
       height="100%" />
  </g>
  <g
     id="g7105">
    <use
       xlink:href="#cbmqj8bkA"
       id="use7103"
       style="opacity:1;fill:#323232;fill-opacity:1"
       x="0"
       y="0"
       width="100%"
       height="100%" />
  </g>
  <g
     id="g7109">
    <use
       xlink:href="#aS3Xr7Xb3"
       id="use7107"
       style="opacity:1;fill:#6c6c6c;fill-opacity:1"
       x="0"
       y="0"
       width="100%"
       height="100%" />
  </g>
  <g
     id="g7113">
    <use
       xlink:href="#fdYwUrnup"
       id="use7111"
       style="opacity:1;fill:#212121;fill-opacity:1"
       x="0"
       y="0"
       width="100%"
       height="100%" />
  </g>
  <g
     id="g7117">
    <use
       xlink:href="#aEX5GObEz"
       id="use7115"
       style="opacity:1;fill:#232323;fill-opacity:1"
       x="0"
       y="0"
       width="100%"
       height="100%" />
  </g>
  <g
     id="g7121">
    <use
       xlink:href="#f1y4KmMIa2"
       id="use7119"
       style="opacity:1;fill:#1b1b1b;fill-opacity:1"
       x="0"
       y="0"
       width="100%"
       height="100%" />
  </g>
  <g
     id="g7125">
    <use
       xlink:href="#nXGwOCFz9"
       id="use7123"
       style="opacity:1;fill:#323232;fill-opacity:1"
       x="0"
       y="0"
       width="100%"
       height="100%" />
  </g>
  <g
     id="g7129">
    <use
       xlink:href="#o8yttwy8F"
       id="use7127"
       style="opacity:1;fill:#141414;fill-opacity:1"
       x="0"
       y="0"
       width="100%"
       height="100%" />
  </g>
  <g
     id="g7133">
    <use
       xlink:href="#cBCZVIVpq"
       id="use7131"
       style="opacity:1;fill:#121212;fill-opacity:1"
       x="0"
       y="0"
       width="100%"
       height="100%" />
  </g>
  <g
     id="g7137">
    <use
       xlink:href="#a20spmnzts"
       id="use7135"
       style="opacity:1;fill:#111111;fill-opacity:1"
       x="0"
       y="0"
       width="100%"
       height="100%" />
  </g>
  <g
     id="g7141">
    <use
       xlink:href="#c4hATiAq8a"
       id="use7139"
       style="opacity:1;fill:#111111;fill-opacity:1"
       x="0"
       y="0"
       width="100%"
       height="100%" />
  </g>
  <g
     id="g7145">
    <use
       xlink:href="#fm5kafbwj"
       id="use7143"
       style="opacity:1;fill:#212121;fill-opacity:1"
       x="0"
       y="0"
       width="100%"
       height="100%" />
  </g>
  <g
     id="g7149">
    <use
       xlink:href="#cEzCyKENl"
       id="use7147"
       style="opacity:1;fill:#111111;fill-opacity:1"
       x="0"
       y="0"
       width="100%"
       height="100%" />
  </g>
  <g
     id="g7153">
    <use
       xlink:href="#g3pMFos6QM"
       id="use7151"
       style="opacity:1;fill:#1b1b1b;fill-opacity:1"
       x="0"
       y="0"
       width="100%"
       height="100%" />
  </g>
  <g
     id="g7157">
    <use
       xlink:href="#b4wNvO90KN"
       id="use7155"
       style="opacity:1;fill:#212121;fill-opacity:1"
       x="0"
       y="0"
       width="100%"
       height="100%" />
  </g>
  <g
     id="g7161">
    <use
       xlink:href="#gBvsL3ZOx"
       id="use7159"
       style="opacity:1;fill:#515151;fill-opacity:1"
       x="0"
       y="0"
       width="100%"
       height="100%" />
  </g>
  <g
     id="g7165">
    <use
       xlink:href="#dfVKJVY9m"
       id="use7163"
       style="opacity:1;fill:#151515;fill-opacity:1"
       x="0"
       y="0"
       width="100%"
       height="100%" />
  </g>
  <g
     id="g7169">
    <use
       xlink:href="#a1wp68D3zs"
       id="use7167"
       style="opacity:1;fill:#1b1b1b;fill-opacity:1"
       x="0"
       y="0"
       width="100%"
       height="100%" />
  </g>
  <g
     id="g7173">
    <use
       xlink:href="#d2tPe1oYsb"
       id="use7171"
       style="opacity:1;fill:#030303;fill-opacity:1"
       x="0"
       y="0"
       width="100%"
       height="100%" />
  </g>
  <g
     id="g7177">
    <use
       xlink:href="#d1f9AiqJ96"
       id="use7175"
       style="opacity:1;fill:#474747;fill-opacity:1"
       x="0"
       y="0"
       width="100%"
       height="100%" />
  </g>
  <g
     id="g7181">
    <use
       xlink:href="#cIP2cjSbA"
       id="use7179"
       style="opacity:1;fill:#323232;fill-opacity:1"
       x="0"
       y="0"
       width="100%"
       height="100%" />
  </g>
  <g
     id="g7185">
    <use
       xlink:href="#bd8qtZ8k2"
       id="use7183"
       style="opacity:1;fill:#1b1b1b;fill-opacity:1"
       x="0"
       y="0"
       width="100%"
       height="100%" />
  </g>
  <g
     id="g7193">
    <use
       xlink:href="#aXrYWvq5"
       id="use7187"
       style="opacity:1;fill:#000000;fill-opacity:1"
       x="0"
       y="0"
       width="100%"
       height="100%" />
    <g
       id="g7191">
      <use
         xlink:href="#aXrYWvq5"
         id="use7189"
         style="opacity:1;fill-opacity:0;stroke:#000000;stroke-width:1;stroke-opacity:1"
         x="0"
         y="0"
         width="100%"
         height="100%" />
    </g>
  </g>
  <g
     id="g7201">
    <use
       xlink:href="#arvNtBDFT"
       id="use7195"
       style="opacity:1;fill:#dedede;fill-opacity:1"
       x="0"
       y="0"
       width="100%"
       height="100%" />
    <g
       id="g7199">
      <use
         xlink:href="#arvNtBDFT"
         id="use7197"
         style="opacity:1;fill-opacity:0;stroke:#000000;stroke-width:5;stroke-opacity:1"
         x="0"
         y="0"
         width="100%"
         height="100%" />
    </g>
  </g>
  <g
     id="g7205">
    <use
       xlink:href="#a1mxjKxYhY"
       id="use7203"
       style="opacity:1;fill:#000000;fill-opacity:1"
       x="0"
       y="0"
       width="100%"
       height="100%" />
  </g>
  <g
     id="g7209">
    <use
       xlink:href="#b2LZc7s0a"
       id="use7207"
       style="opacity:1;fill:#030303;fill-opacity:1"
       x="0"
       y="0"
       width="100%"
       height="100%" />
  </g>
  <g
     id="g7217">
    <use
       xlink:href="#aMW87afP"
       id="use7211"
       style="opacity:1;fill:#db0000;fill-opacity:1"
       x="0"
       y="0"
       width="100%"
       height="100%" />
    <g
       id="g7215"
       style="fill:#d1504d;fill-opacity:1">
      <use
         xlink:href="#aMW87afP"
         id="use7213"
         style="opacity:1;fill-opacity:1;stroke:#000000;stroke-width:4;stroke-opacity:1;fill:#d1504d"
         x="0"
         y="0"
         width="100%"
         height="100%" />
    </g>
  </g>
  <g
     id="g7225">
    <use
       xlink:href="#e31xhwXggP"
       id="use7219"
       style="opacity:1;fill:#ffffff;fill-opacity:1"
       x="0"
       y="0"
       width="100%"
       height="100%" />
    <g
       id="g7223">
      <use
         xlink:href="#e31xhwXggP"
         id="use7221"
         style="opacity:1;fill-opacity:0;stroke:#000000;stroke-width:4;stroke-opacity:1"
         x="0"
         y="0"
         width="100%"
         height="100%" />
    </g>
  </g>
  <g
     id="g7233">
    <use
       xlink:href="#bsebDbf6B"
       id="use7227"
       style="opacity:1;fill:#ffffff;fill-opacity:1"
       x="0"
       y="0"
       width="100%"
       height="100%" />
    <g
       id="g7231">
      <use
         xlink:href="#bsebDbf6B"
         id="use7229"
         style="opacity:1;fill-opacity:0;stroke:#000000;stroke-width:3;stroke-opacity:1"
         x="0"
         y="0"
         width="100%"
         height="100%" />
    </g>
  </g>
  <g
     id="g7241">
    <use
       xlink:href="#fQxNhEDE2"
       id="use7235"
       style="opacity:1;fill:#151414;fill-opacity:1"
       x="0"
       y="0"
       width="100%"
       height="100%" />
    <g
       id="g7239">
      <use
         xlink:href="#fQxNhEDE2"
         id="use7237"
         style="opacity:1;fill-opacity:0;stroke:#272626;stroke-width:2;stroke-opacity:1"
         x="0"
         y="0"
         width="100%"
         height="100%" />
    </g>
  </g>
  <g
     id="g7249">
    <use
       xlink:href="#aJdxp6sVU"
       id="use7243"
       style="opacity:1;fill:#000000;fill-opacity:1"
       x="0"
       y="0"
       width="100%"
       height="100%" />
    <g
       id="g7247">
      <use
         xlink:href="#aJdxp6sVU"
         id="use7245"
         style="opacity:1;fill-opacity:0;stroke:#000000;stroke-width:2;stroke-opacity:1"
         x="0"
         y="0"
         width="100%"
         height="100%" />
    </g>
  </g>
  <g
     id="g7257">
    <use
       xlink:href="#d1psDwV2OV"
       id="use7251"
       style="opacity:1;fill:#000000;fill-opacity:1"
       x="0"
       y="0"
       width="100%"
       height="100%" />
    <g
       id="g7255">
      <use
         xlink:href="#d1psDwV2OV"
         id="use7253"
         style="opacity:1;fill-opacity:0;stroke:#000000;stroke-width:2;stroke-opacity:1"
         x="0"
         y="0"
         width="100%"
         height="100%" />
    </g>
  </g>
  <g
     id="g7265">
    <use
       xlink:href="#b3l263F8jP"
       id="use7259"
       style="opacity:1;fill:#000000;fill-opacity:1"
       x="0"
       y="0"
       width="100%"
       height="100%" />
    <g
       id="g7263">
      <use
         xlink:href="#b3l263F8jP"
         id="use7261"
         style="opacity:1;fill-opacity:0;stroke:#000000;stroke-width:2;stroke-opacity:1"
         x="0"
         y="0"
         width="100%"
         height="100%" />
    </g>
  </g>
  <g
     id="g7273">
    <use
       xlink:href="#bdS169lUx"
       id="use7267"
       style="opacity:1;fill:#000000;fill-opacity:1"
       x="0"
       y="0"
       width="100%"
       height="100%" />
    <g
       id="g7271">
      <use
         xlink:href="#bdS169lUx"
         id="use7269"
         style="opacity:1;fill-opacity:0;stroke:#000000;stroke-width:2;stroke-opacity:1"
         x="0"
         y="0"
         width="100%"
         height="100%" />
    </g>
  </g>
  <g
     id="g7281">
    <use
       xlink:href="#dPdJU1MOQ"
       id="use7275"
       style="opacity:1;fill:#090909;fill-opacity:1"
       x="0"
       y="0"
       width="100%"
       height="100%" />
    <g
       id="g7279">
      <use
         xlink:href="#dPdJU1MOQ"
         id="use7277"
         style="opacity:1;fill-opacity:0;stroke:#000000;stroke-width:1;stroke-opacity:1"
         x="0"
         y="0"
         width="100%"
         height="100%" />
    </g>
  </g>
  <g
     id="g7289">
    <use
       xlink:href="#ceqGg3ktL"
       id="use7283"
       style="opacity:1;fill:#000000;fill-opacity:1"
       x="0"
       y="0"
       width="100%"
       height="100%" />
    <g
       id="g7287">
      <use
         xlink:href="#ceqGg3ktL"
         id="use7285"
         style="opacity:1;fill-opacity:0;stroke:#000000;stroke-width:1;stroke-opacity:1"
         x="0"
         y="0"
         width="100%"
         height="100%" />
    </g>
  </g>
</svg>
